<svg xmlns="http://www.w3.org/2000/svg" width="12" height="23" viewBox="0 0 12 23">
    <g fill="#98999A" fill-rule="evenodd">
        <path d="M11.625 7.766c-.222-.486-.605-.754-1.08-.754H7.21l1.032-4.996A1.614 1.614 0 0 0 8.059.842C7.764.34 7.355.234 7.064.234h-4.55c-.314 0-.604.134-.837.387a1.45 1.45 0 0 0-.38.882l-.265 2.508c.078-.013.156-.025.238-.025.209 0 .408.044.59.12l.265-2.516v-.005a.618.618 0 0 1 .158-.384c.1-.108.175-.122.23-.122h4.551c.08 0 .173.016.278.194.101.174.13.36.085.568L6.185 7.858h4.36c.098 0 .213.02.325.265a.732.732 0 0 1-.002.658L4.982 21.655c-.114.245-.229.265-.327.265-.088 0-.183-.022-.28-.18-.101-.165-.127-.352-.08-.59l1.634-8.716H1.443c-.078 0-.163-.02-.26-.16a.795.795 0 0 1-.129-.517l.486-4.611a1.527 1.527 0 0 1-.27.027c-.198 0-.385-.04-.56-.109l-.486 4.62c-.027.407.066.769.277 1.076.299.429.677.52.942.52h3.48l-1.446 7.709c-.087.444-.024.846.19 1.2.235.377.577.577.988.577.334 0 .792-.13 1.082-.753l5.887-12.874c.208-.451.208-.928 0-1.373"/>
        <path d="M1.27 4.663a.91.91 0 0 1 .903.917.91.91 0 0 1-.904.917.91.91 0 0 1-.903-.917.91.91 0 0 1 .903-.917"/>
    </g>
</svg>
