<svg xmlns="http://www.w3.org/2000/svg" width="37" height="70" viewBox="0 0 37 70">
    <g fill="#2DAF3C" fill-rule="evenodd">
        <path d="M35.843 23.634c-.683-1.479-1.865-2.293-3.33-2.293h-10.28l3.182-15.204c.27-1.27.081-2.469-.565-3.574-.911-1.53-2.171-1.851-3.068-1.851H7.749c-.966 0-1.86.41-2.578 1.178-.679.715-1.074 1.618-1.174 2.685l-.814 7.63c.24-.036.48-.073.732-.073.644 0 1.258.133 1.82.363l.817-7.654.002-.018c.045-.489.203-.869.485-1.166.307-.33.54-.372.71-.372h14.033c.244 0 .533.046.856.589.312.531.399 1.096.263 1.73l-3.832 18.31h13.444c.304 0 .656.062 1.002.81.32.678.318 1.312-.004 2.002L15.36 65.906c-.35.746-.704.808-1.008.808-.27 0-.562-.068-.864-.547-.311-.505-.39-1.072-.245-1.796l5.039-26.53H4.448c-.238 0-.5-.06-.8-.486-.309-.441-.437-.971-.397-1.571l1.498-14.036c-.273.048-.55.084-.834.084-.61 0-1.186-.126-1.724-.332l-1.5 14.058c-.084 1.242.202 2.342.854 3.278.92 1.304 2.087 1.579 2.903 1.579h10.73l-4.456 23.464c-.27 1.35-.076 2.576.586 3.65.724 1.15 1.777 1.759 3.044 1.759 1.03 0 2.444-.396 3.336-2.293L35.84 27.814c.643-1.373.643-2.823.003-4.18"/>
        <path d="M3.914 14.19A2.79 2.79 0 0 1 6.7 16.984a2.789 2.789 0 0 1-2.786 2.79 2.788 2.788 0 0 1-2.786-2.79 2.788 2.788 0 0 1 2.786-2.792"/>
    </g>
</svg>
