<svg xmlns="http://www.w3.org/2000/svg" width="78" height="60" viewBox="0 0 78 60">
    <g fill="#2DAF3C" fill-rule="evenodd">
        <path d="M12.413 7.505a57.587 57.587 0 0 0-11.859 8.25.707.707 0 0 0-.047.997l1.008 1.105a.676.676 0 0 0 .958.044 54.651 54.651 0 0 1 11.21-7.81 5.405 5.405 0 0 1-1.27-2.586M52.892 2.684C43.675.34 34.366.332 25.229 2.654c-1.02.25-2.023.54-3.02.844.528.792.835 1.734.885 2.745a57.11 57.11 0 0 1 2.827-.79c8.682-2.208 17.519-2.198 26.278.03 8.714 2.146 16.559 6.321 23.327 12.418a.68.68 0 0 0 .96-.045l1.007-1.106a.705.705 0 0 0-.047-.994C70.323 9.34 62.06 4.941 52.892 2.684M66.407 28.915a.678.678 0 0 1-.958.045c-4.898-4.374-10.582-7.376-16.903-8.934-6.338-1.61-12.753-1.613-19.081-.002-6.332 1.56-12.016 4.562-16.915 8.936a.678.678 0 0 1-.958-.045l-1.007-1.106a.704.704 0 0 1 .048-.995c5.254-4.694 11.353-7.92 18.14-9.59 6.782-1.725 13.672-1.725 20.464.003 6.776 1.667 12.876 4.893 18.129 9.587.289.257.31.71.049.995l-1.008 1.106zM55.747 39.638a.68.68 0 0 1-.954.08 24.847 24.847 0 0 0-9.943-4.94 24.61 24.61 0 0 0-11.7-.001 24.868 24.868 0 0 0-9.945 4.943.678.678 0 0 1-.951-.08l-.968-1.142a.705.705 0 0 1 .084-.997 27.725 27.725 0 0 1 11.11-5.53 27.506 27.506 0 0 1 13.04.002c4.096.99 7.83 2.849 11.11 5.528.3.246.336.7.085.997l-.968 1.14zM39 45.093c-1.574 0-2.858.523-3.93 1.6-1.069 1.075-1.59 2.368-1.59 3.952s.521 2.877 1.59 3.952c1.07 1.076 2.356 1.6 3.93 1.6 1.574 0 2.86-.524 3.93-1.6 1.069-1.075 1.59-2.368 1.59-3.952s-.521-2.877-1.59-3.952c-1.072-1.076-2.356-1.6-3.93-1.6m0 13.988c-2.34 0-4.345-.823-5.957-2.444s-2.43-3.637-2.43-5.992.818-4.37 2.43-5.992c1.613-1.622 3.617-2.445 5.957-2.445s4.344.823 5.957 2.445c1.612 1.621 2.43 3.637 2.43 5.992s-.818 4.37-2.43 5.992C43.345 58.258 41.34 59.08 39 59.08M17.717 3.382c1.718 0 3.11 1.4 3.11 3.128a3.119 3.119 0 0 1-3.11 3.13c-1.719 0-3.11-1.402-3.11-3.13a3.119 3.119 0 0 1 3.11-3.128"/>
    </g>
</svg>
