<svg xmlns="http://www.w3.org/2000/svg" width="46" height="60" viewBox="0 0 46 60">
    <g fill="#2DAF3C" fill-rule="evenodd">
        <path d="M44.979 49.469L30.312 25.622a16.389 16.389 0 0 0 .328-17.75C27.491 2.75 21.8-.245 15.766.015c-.39.018-.742.24-.925.585-.183.344-.17.758.034 1.09l6.541 10.637-3.1 6.972-7.68-.386-6.55-10.65a1.14 1.14 0 0 0-.959-.525c-.39.006-.749.217-.943.555a16.453 16.453 0 0 0 .256 16.814c.554.902 1.19 1.728 1.885 2.49a4.148 4.148 0 0 1 1.57-1.553 14.376 14.376 0 0 1-1.572-2.088 14.256 14.256 0 0 1-1.067-12.83l5.8 9.433c.19.31.522.507.886.524l9.02.454c.455.017.88-.237 1.065-.653l3.645-8.194a1.095 1.095 0 0 0-.07-1.022l-5.785-9.41c4.477.4 8.553 2.882 10.94 6.764a14.204 14.204 0 0 1-.656 15.909 1.1 1.1 0 0 0-.05 1.226L43.095 50.62c.66 1.072.861 2.338.567 3.562a4.682 4.682 0 0 1-2.126 2.918 4.723 4.723 0 0 1-3.572.565 4.7 4.7 0 0 1-2.928-2.12L20 31.095a1.103 1.103 0 0 0-1.122-.511 14.39 14.39 0 0 1-6.832-.53 4.111 4.111 0 0 1-.798 2.066 16.538 16.538 0 0 0 7.247.742l14.659 23.835a6.883 6.883 0 0 0 4.294 3.11 6.906 6.906 0 0 0 5.243-.83c3.26-1.992 4.287-6.258 2.288-9.508"/>
        <path d="M39 51a2 2 0 1 1 0 4 2 2 0 0 1 0-4M7.5 27a2.5 2.5 0 1 1 0 5 2.5 2.5 0 0 1 0-5"/>
    </g>
</svg>
