<svg xmlns="http://www.w3.org/2000/svg" width="18" height="23" viewBox="0 0 18 23">
    <g fill="#98999A" fill-rule="evenodd">
        <path d="M17.6 18.963l-5.739-9.141a6.175 6.175 0 0 0 .129-6.805C10.758 1.054 8.53-.093 6.17.006a.434.434 0 0 0-.363.224.413.413 0 0 0 .014.418l2.56 4.078-1.214 2.672-3.005-.147-2.563-4.083a.448.448 0 0 0-.375-.201.434.434 0 0 0-.37.212 6.197 6.197 0 0 0 .838 7.4c.147-.25.358-.454.615-.595a5.368 5.368 0 0 1-1.033-5.719l2.27 3.616a.432.432 0 0 0 .346.201l3.53.174a.438.438 0 0 0 .417-.25l1.426-3.14a.412.412 0 0 0-.027-.393L6.972.866a5.628 5.628 0 0 1 4.28 2.593 5.354 5.354 0 0 1-.256 6.098.415.415 0 0 0-.02.47l5.887 9.377c.258.411.337.896.222 1.366-.115.469-.41.866-.832 1.118a1.88 1.88 0 0 1-1.397.217 1.837 1.837 0 0 1-1.146-.813L7.826 11.92a.434.434 0 0 0-.439-.196 5.742 5.742 0 0 1-2.673-.203c-.03.295-.14.566-.312.792.894.293 1.859.4 2.835.284l5.736 9.137a2.691 2.691 0 0 0 1.68 1.192 2.744 2.744 0 0 0 2.052-.318 2.618 2.618 0 0 0 .895-3.645"/>
        <path d="M15.26 19.55c.433 0 .783.343.783.767 0 .423-.35.766-.782.766a.775.775 0 0 1-.783-.766c0-.424.35-.767.783-.767M2.935 10.35c.54 0 .978.43.978.958 0 .53-.438.959-.978.959a.968.968 0 0 1-.978-.959c0-.529.437-.958.978-.958"/>
    </g>
</svg>
