<svg xmlns="http://www.w3.org/2000/svg" width="26" height="20" viewBox="0 0 26 20">
    <g fill="#98999A" fill-rule="evenodd">
        <path d="M4.138 2.502a19.196 19.196 0 0 0-3.953 2.75.236.236 0 0 0-.016.332l.336.368a.225.225 0 0 0 .32.015A18.217 18.217 0 0 1 4.56 3.364a1.802 1.802 0 0 1-.423-.862M17.63.895a18.509 18.509 0 0 0-9.22-.01c-.34.083-.675.18-1.007.28.176.265.278.579.295.916.311-.094.624-.185.942-.264a17.576 17.576 0 0 1 8.76.01c2.904.716 5.52 2.108 7.775 4.14a.227.227 0 0 0 .32-.015l.336-.369a.235.235 0 0 0-.016-.33c-2.374-2.14-5.128-3.606-8.184-4.358M22.136 9.638a.226.226 0 0 1-.32.015 13.07 13.07 0 0 0-5.634-2.978 12.76 12.76 0 0 0-6.36 0c-2.111.52-4.006 1.52-5.639 2.978a.226.226 0 0 1-.319-.015l-.336-.368a.235.235 0 0 1 .016-.332 14.01 14.01 0 0 1 6.047-3.197 13.695 13.695 0 0 1 6.822.001 14.005 14.005 0 0 1 6.042 3.196.235.235 0 0 1 .017.332l-.336.368zM18.582 13.213a.227.227 0 0 1-.318.027 8.282 8.282 0 0 0-3.314-1.647 8.203 8.203 0 0 0-3.9 0 8.29 8.29 0 0 0-3.315 1.647.226.226 0 0 1-.317-.027l-.323-.38a.235.235 0 0 1 .028-.333 9.242 9.242 0 0 1 3.704-1.843 9.169 9.169 0 0 1 4.347 0c1.365.33 2.61.95 3.703 1.843.1.082.112.234.028.333l-.323.38zM13 15.03c-.525 0-.953.176-1.31.534-.356.359-.53.79-.53 1.318s.174.958.53 1.317c.357.359.785.533 1.31.533s.953-.174 1.31-.533c.356-.359.53-.79.53-1.317 0-.528-.174-.96-.53-1.318-.357-.358-.785-.533-1.31-.533m0 4.663c-.78 0-1.448-.275-1.986-.815-.537-.54-.81-1.212-.81-1.997 0-.785.273-1.457.81-1.998.538-.54 1.206-.815 1.986-.815s1.448.275 1.986.815c.537.54.81 1.213.81 1.998 0 .785-.273 1.457-.81 1.997-.538.54-1.206.815-1.986.815M5.906 1.127A1.04 1.04 0 0 1 6.942 2.17a1.04 1.04 0 0 1-1.036 1.043A1.04 1.04 0 0 1 4.869 2.17a1.04 1.04 0 0 1 1.037-1.043"/>
    </g>
</svg>
